<svg xmlns="http://www.w3.org/2000/svg" fill="none" viewBox="0 0 32 24"><path fill="#CC092F" d="M29.913 0H2.087A2.087 2.087 0 0 0 0 2.087v19.478c0 1.153.934 2.087 2.087 2.087h27.826A2.087 2.087 0 0 0 32 21.565V2.087A2.087 2.087 0 0 0 29.913 0"/><path fill="#fff" d="M15.304 8.024c-.85 0-1.777.08-2.693.235a5.12 5.12 0 0 1 4.04-1.961c1.212 0 2.42.456 3.235 1.136.148.123.26.134.373.022s.101-.225-.022-.37c-1.06-1.234-2.624-2.07-4.47-2.037-2.41.047-4.459 1.57-5.237 3.688-.713.22-1.372.488-1.947.81q-.24.135-.16.334.09.186.33.123c.5-.145 1.006-.268 1.538-.38q-.088.418-.09.868c-.047 1.947.995 3.797 2.602 4.81.16.101.293.101.384-.021.09-.124.08-.236-.058-.355-1.017-.912-1.585-2.273-1.585-3.62 0-.68.137-1.335.394-1.925a21 21 0 0 1 1.744-.08c4.12 0 7.594 1.358 7.594 3.142 0 .901-1.144 1.802-2.501 2.407-.33.145-.362.246-.319.39.047.135.192.178.362.124 2.378-.778 4.177-2.06 4.177-3.609.007-2.106-3.388-3.731-7.691-3.731"/><path fill="#fff" d="M17.27 18.732v-4.51c0-.174-.166-.235-.303-.16l-1.148.663v4.224h1.23c.124 0 .222-.098.222-.217M14.422 15.692v3.12c0 .079.062.14.141.14h.87v-4.006l-.866.5a.27.27 0 0 0-.145.245"/></svg>