<svg xmlns="http://www.w3.org/2000/svg" fill="none" viewBox="0 0 32 24"><path fill="#000" d="M29.913 0H2.087A2.087 2.087 0 0 0 0 2.087v19.478c0 1.153.934 2.087 2.087 2.087h27.826A2.087 2.087 0 0 0 32 21.565V2.087A2.087 2.087 0 0 0 29.913 0"/><path fill="#fff" d="M12.753 13.354q.524-.468.684-1.23h3.45q-.238 2.177-1.719 3.526Q13.689 17 11.525 17q-1.578 0-2.842-.707a5.06 5.06 0 0 1-1.973-1.967Q6 13.067 6 11.5t.709-2.826a5.06 5.06 0 0 1 1.973-1.967Q9.946 6 11.524 6q2.13 0 3.596 1.302t1.731 3.414h-3.4a2.27 2.27 0 0 0-.74-1.12 1.8 1.8 0 0 0-1.174-.425q-.893 0-1.442.642T9.548 11.5q0 1.037.552 1.68.552.642 1.438.642.692 0 1.215-.468m12.242-2.86Q26 11.478 26 13.037q0 1.782-1.157 2.872Q23.688 17 21.794 17q-1.87 0-3.041-1.094-1.172-1.095-1.172-2.839 0-.953.322-1.916.32-.965.994-2.109l1.586-2.69h3.35l-1.876 3.174q.28-.015.444-.015 1.589 0 2.594.983m-2.262 3.518q.362-.376.362-.976t-.362-.983-.939-.384q-.576 0-.938.384-.363.384-.363.983 0 .6.363.976.362.376.938.376.577 0 .94-.376"/></svg>