<svg xmlns="http://www.w3.org/2000/svg" fill="none" viewBox="0 0 32 24"><path fill="#FF7A00" d="M29.913 0H2.087A2.087 2.087 0 0 0 0 2.087v19.478c0 1.153.934 2.087 2.087 2.087h27.826A2.087 2.087 0 0 0 32 21.565V2.087A2.087 2.087 0 0 0 29.913 0"/><path fill="#fff" d="M4.98 8.137v.23c.014.38.338.684.741.698h.124c.403-.014.727-.319.741-.698l.001-.059v-.171c-.015-.38-.339-.684-.742-.698h-.124c-.403.014-.727.319-.741.698M15.51 10.83v3.113c0 .542.21.786.872.786.277 0 .55-.077.713-.135v1.254c-.278.093-.702.14-1.049.14-1.39 0-2.05-.695-2.05-1.896V7.81h1.514v1.997h1.585v1.023z"/><path fill="#fff" fill-rule="evenodd" d="M17.608 12.723c0-1.844 1.166-3.1 3.033-3.1 1.994 0 2.983 1.45 2.878 3.554h-4.355c.079 1.079.587 1.626 1.487 1.626.76 0 1.164-.366 1.338-.883h1.48c-.288 1.268-1.295 2.068-2.828 2.068-1.892 0-3.033-1.244-3.033-3.112zm3.021-1.892c-.83 0-1.326.443-1.465 1.324l2.834-.023c-.082-.822-.527-1.3-1.369-1.3" clip-rule="evenodd"/><path fill="#fff" d="M10.956 9.623c-.974 0-1.576.574-1.876 1.138l-.07-.952H7.565v5.993H9.08v-3.369c0-.994.529-1.602 1.328-1.602.8 0 1.095.527 1.095 1.44v3.53h1.515v-3.855c.002-1.338-.58-2.323-2.062-2.323M25.88 10.76c.384-.75 1.17-1.138 1.76-1.138.104 0 .27.014.36.034v1.174a5 5 0 0 0-.44-.024c-1.077 0-1.68.646-1.68 1.743v3.252h-1.515V9.809h1.468zM4 9.809v1.02h1.025v4.973H6.54V9.809z"/></svg>