<svg xmlns="http://www.w3.org/2000/svg" fill="none" viewBox="0 0 32 24"><path fill="#EC7000" d="M29.913 0H2.087A2.087 2.087 0 0 0 0 2.087v19.478c0 1.153.934 2.087 2.087 2.087h27.826A2.087 2.087 0 0 0 32 21.565V2.087A2.087 2.087 0 0 0 29.913 0"/><path fill="#039" fill-rule="evenodd" d="M10.176 3H21.17c1.726 0 3.146 1.42 3.146 3.161v10.994c0 1.726-1.42 3.146-3.16 3.146h-11.01C8.42 20.3 7 18.88 7 17.14l.015-10.994C7.031 4.42 8.451 2.985 10.176 3" clip-rule="evenodd"/><path fill="#FF0" fill-rule="evenodd" d="M21.888 10.895h-1.252l-.52.992h.886zm.84 1.603h-1.222v2.642c0 .809-.55 1.038-.946 1.038-.382 0-.794-.137-.794-.84v-2.825h-1.222v3.008c0 1.16.672 1.68 1.588 1.68.641 0 1.13-.275 1.405-.763h.015v.641h1.176zM17.582 13.704c0-1.13-1.191-1.328-1.848-1.328-.962 0-1.939.198-2.092 1.603h1.191c.03-.275.153-.641.764-.641.305 0 .81.03.81.534 0 .26-.245.336-.444.367l-1.1.168c-.778.107-1.358.565-1.358 1.466 0 .946.718 1.328 1.42 1.328.84 0 1.237-.382 1.496-.657.031.245.046.306.123.535h1.053v-3.375zM12.375 10.895h-1.222v1.603h-.626v.855h.626v2.78c0 .595.199.992 1.252.992h.153c.199 0 .397-.015.58-.015v-.917c-.091 0-.183.016-.26.016-.503 0-.503-.107-.503-.382v-2.474h.763v-.855h-.763zM9.947 10.88H8.634l-.016 6.168h1.329z" clip-rule="evenodd"/><path fill="#039" fill-rule="evenodd" d="M16.39 15.43v-.596c-.121.092-.335.168-.839.245-.458.076-.84.198-.84.702 0 .412.336.55.58.55.55-.016 1.1-.351 1.1-.901" clip-rule="evenodd"/></svg>