<svg xmlns="http://www.w3.org/2000/svg" fill="none" viewBox="0 0 32 24"><path fill="#820AD1" d="M29.913 0H2.087A2.087 2.087 0 0 0 0 2.087v19.478c0 1.153.934 2.087 2.087 2.087h27.826A2.087 2.087 0 0 0 32 21.565V2.087A2.087 2.087 0 0 0 29.913 0"/><path fill="#fff" d="M10.456 8.126a2.88 2.88 0 0 1 2.132-.913c1.666 0 2.77 1.216 2.982 3.038.068.592.067 1.427.067 2.393v3.9210000000000003h-2.292v-2.677s-.004-2.292-.018-2.72c-.062-1.865-1.166-3.037-2.872-3.039-.514.544-.79 1.209-.83 2.225-.006.142-.005.644-.003 1.307l.002 1.13c.002 1.745 0 3.775 0 3.775h-2.29v-4.121q0-.212-.006-.427c-.005-.287-.01-.577.005-.864.026-.478.109-.948.332-1.385a3.03 3.03 0 0 1 2.79-1.643M24.667 12.846c.015-.287.01-.577.005-.864l-.006-.427v-4.12h-2.29s-.002 2.03 0 3.774c0 .401 0 .787.002 1.13.002.663.003 1.165-.003 1.307-.04 1.016-.316 1.681-.83 2.225-1.706-.001-2.81-1.174-2.872-3.039-.014-.428-.02-1.49-.02-2.722V7.433l-2.29.002v3.9210000000000003c0 .966 0 1.8.068 2.393.21 1.822 1.315 3.038 2.981 3.038.856 0 1.584-.337 2.132-.913l.117.002a3.03 3.03 0 0 0 2.674-1.645c.223-.437.306-.907.331-1.385"/></svg>