<svg xmlns="http://www.w3.org/2000/svg" fill="none" viewBox="0 0 32 24"><path fill="#00A857" d="M29.913 0H2.087A2.087 2.087 0 0 0 0 2.087v19.478c0 1.153.934 2.087 2.087 2.087h27.826A2.087 2.087 0 0 0 32 21.565V2.087A2.087 2.087 0 0 0 29.913 0"/><path fill="#FEFEFE" fill-rule="evenodd" d="M22.51 9.017c.271 0 .49.219.49.488v5.254a.49.49 0 0 1-.244.423l-6.512 3.753a.49.49 0 0 1-.489 0l-6.51-3.744A.49.49 0 0 1 9 14.767v-5.25a.49.49 0 0 1 .98 0v4.968L16 17.947l6.021-3.47V9.505c0-.27.22-.488.49-.488m-6.754-5.951a.49.49 0 0 1 .49 0l6.51 3.75a.49.49 0 0 1 0 .847l-6.512 3.753a.49.49 0 0 1-.489 0l-6.51-3.744a.49.49 0 0 1 0-.846zm.245.987L10.47 7.248l5.53 3.18 5.533-3.188z" clip-rule="evenodd"/></svg>