<svg xmlns="http://www.w3.org/2000/svg" fill="none" viewBox="0 0 32 24"><path fill="#EA1D25" d="M29.913 0H2.087A2.087 2.087 0 0 0 0 2.087v19.478c0 1.153.934 2.087 2.087 2.087h27.826A2.087 2.087 0 0 0 32 21.565V2.087A2.087 2.087 0 0 0 29.913 0"/><path fill="#fff" d="M19.917 11.226c-.038-.568-.19-1.135-.492-1.627l-2.572-4.502c-.19-.34-.34-.719-.416-1.097l-.114.19a3.59 3.59 0 0 0 0 3.593l2.08 3.594a3.59 3.59 0 0 1 0 3.594l-.113.19a3.9 3.9 0 0 0-.416-1.098l-1.891-3.291-1.211-2.119c-.19-.34-.34-.719-.416-1.097l-.114.19c-.643 1.096-.643 2.458 0 3.593l2.081 3.594a3.59 3.59 0 0 1 0 3.594l-.113.19a3.9 3.9 0 0 0-.417-1.098l-2.61-4.502a4 4 0 0 1-.492-1.967c-2.761.719-4.69 2.27-4.69 4.048 0 2.497 3.707 4.502 8.284 4.502s8.285-2.005 8.285-4.502c.038-1.702-1.853-3.253-4.653-3.972"/></svg>