<svg xmlns="http://www.w3.org/2000/svg" fill="none" viewBox="0 0 32 24"><path fill="#306FC5" fill-rule="evenodd" d="M29.6 0h-28C.8 0 0 .96 0 1.92v19.2Q0 24 2.4 24h27.2q2.4 0 2.4-2.88V2.88Q32 0 29.6 0" clip-rule="evenodd"/><path fill="#fff" fill-rule="evenodd" d="m2.704 9.325-.62-1.51-.616 1.51zm13.653-.601c-.124.075-.272.078-.448.078h-1.1V7.96h1.115c.158 0 .322.008.43.069.117.055.19.172.19.335 0 .165-.07.298-.187.36 0 0 .117-.062 0 0m7.847.601-.626-1.51-.624 1.51zM9.576 10.96h-.928l-.003-2.967-1.313 2.967h-.795L5.22 7.99v2.97H3.38l-.348-.845H1.145l-.351.845H-.19l1.622-3.788h1.345l1.54 3.586V7.172h1.478l1.185 2.57 1.089-2.57h1.507zm3.7 0h-3.025V7.172h3.025v.788h-2.12v.683h2.07v.777h-2.07v.756h2.12zm4.265-2.768c0 .604-.403.916-.638 1.01.198.075.367.208.448.319.128.188.15.356.15.695v.744h-.914l-.003-.478c0-.228.022-.556-.143-.738-.132-.133-.334-.162-.66-.162h-.972v1.378h-.905V7.172h2.082c.463 0 .804.012 1.097.181.286.17.458.416.458.839 0 0 0-.423 0 0m1.45 2.768h-.925V7.172h.924zm10.718 0h-1.283l-1.717-2.843v2.843h-1.844l-.352-.845h-1.881l-.342.845h-1.06c-.44 0-.997-.098-1.313-.42-.318-.32-.483-.757-.483-1.445 0-.562.099-1.076.488-1.482.293-.302.75-.441 1.375-.441h.877v.811h-.859c-.33 0-.517.05-.697.225-.154.16-.26.46-.26.858 0 .406.08.698.25.89.139.15.392.195.63.195h.407l1.276-2.98h1.357l1.533 3.584V7.172h1.379L28.78 9.81V7.172h.928zm-29.91.744h1.548l.349-.841h.78l.349.84h3.044v-.642l.272.646h1.58l.271-.656v.653h7.565l-.003-1.381h.146c.103.003.133.013.133.182v1.199h3.912v-.322c.316.17.807.322 1.453.322h1.646l.352-.841h.781l.345.84h3.172v-.798l.48.799h2.542V6.42H28v.624l-.352-.624h-2.581v.624l-.324-.624h-3.486c-.584 0-1.097.082-1.512.309V6.42H17.34v.309c-.263-.234-.623-.309-1.022-.309h-8.79l-.59 1.365L6.33 6.42H3.56v.624l-.303-.624H.896L-.2 8.932zm32.209 2.79h-1.65c-.165 0-.275.006-.367.068-.096.061-.132.152-.132.273 0 .142.08.24.198.282.095.033.198.043.349.043l.49.013c.496.012.826.097 1.028.305.036.029.059.061.084.094zm0 2.498c-.22.321-.649.484-1.23.484H29.03v-.812h1.742c.173 0 .294-.023.366-.094a.33.33 0 0 0 .107-.247.31.31 0 0 0-.11-.25c-.066-.059-.162-.085-.32-.085-.85-.029-1.91.026-1.91-1.173 0-.55.349-1.128 1.299-1.128h1.804v-.754h-1.676c-.506 0-.873.122-1.133.31v-.31h-2.48c-.396 0-.86.099-1.08.31v-.31h-4.427v.31c-.352-.254-.947-.31-1.221-.31h-2.92v.31c-.278-.27-.898-.31-1.276-.31h-3.267l-.748.81-.7-.81H6.198v5.288h4.79l.77-.823.726.823 2.952.002V16.98h.29c.392.006.854-.01 1.261-.186v1.427h2.435v-1.378h.118c.15 0 .165.007.165.156v1.222H27.1c.47 0 .96-.12 1.233-.338v.338h2.346c.488 0 .965-.068 1.328-.243zm-3.612-1.514c.176.182.27.413.27.803 0 .815-.509 1.195-1.422 1.195H25.48v-.812h1.757c.172 0 .294-.023.37-.094a.34.34 0 0 0 .107-.247.33.33 0 0 0-.11-.25c-.07-.059-.165-.085-.323-.085-.847-.029-1.907.026-1.907-1.173 0-.55.345-1.128 1.294-1.128h1.816v.807h-1.662c-.164 0-.271.006-.362.068-.1.062-.136.153-.136.273 0 .143.084.24.198.282.095.033.198.043.352.043l.488.013c.491.012.829.097 1.034.305 0 0-.205-.208 0 0m-8.17-.234c-.122.072-.272.078-.448.078h-1.1v-.851h1.115c.161 0 .323.003.432.068.117.062.188.179.188.341s-.07.293-.188.364c0 0 .117-.071 0 0m.546.471a1 1 0 0 1 .444.319c.127.184.146.357.15.691v.751h-.91v-.474c0-.228.023-.565-.146-.741-.132-.136-.334-.169-.664-.169h-.968v1.384h-.91v-3.789h2.09c.46 0 .793.02 1.09.179.286.173.466.41.466.841 0 .605-.404.914-.642 1.008 0 0 .238-.094 0 0m1.144-2.028h3.022v.784h-2.12v.689h2.068v.773h-2.068v.754l2.12.003v.786h-3.022zm-6.11 1.749h-1.17v-.965h1.181c.327 0 .554.133.554.464 0 .328-.216.5-.564.5m-2.071 1.696-1.39-1.544 1.39-1.494zm-3.59-.445H7.917v-.754h1.988v-.773H7.918v-.69h2.27l.99 1.105zm7.198-1.752c0 1.053-.785 1.27-1.577 1.27h-1.13v1.271h-1.76l-1.114-1.254-1.16 1.254H7.017v-3.789h3.642l1.114 1.242 1.152-1.242h2.893c.719 0 1.526.2 1.526 1.248 0 0 0-1.049 0 0" clip-rule="evenodd"/></svg>