<svg xmlns="http://www.w3.org/2000/svg" fill="none" viewBox="0 0 32 24"><path fill="#FF7A14" d="M0 2a2 2 0 0 1 2-2h28a2 2 0 0 1 2 2v5.868a2 2 0 0 1-.971 1.715l-1.17.702c-1.295.777-1.295 2.653 0 3.43l1.17.702A2 2 0 0 1 32 16.132V22a2 2 0 0 1-2 2H2a2 2 0 0 1-2-2v-5.868a2 2 0 0 1 .971-1.715l1.17-.702c1.295-.777 1.295-2.653 0-3.43l-1.17-.702A2 2 0 0 1 0 7.868z"/><path fill="#fff" d="M15.05 17.849q-1.198-.109-1.952-.398A12 12 0 0 1 12 16.945l.705-2.08q.573.307 1.36.561a5.6 5.6 0 0 0 1.69.253q1 0 1.36-.29.377-.306.377-.849 0-.344-.148-.578a1.5 1.5 0 0 0-.426-.452 3.7 3.7 0 0 0-.705-.38 17 17 0 0 0-.984-.416q-.54-.217-1.065-.47a4.8 4.8 0 0 1-.934-.65 3 3 0 0 1-.673-.923q-.245-.56-.245-1.338 0-.596.147-1.139.164-.56.492-1.012t.852-.76q.525-.324 1.246-.47V4h2.066v1.88q.852.09 1.459.271.623.18.983.362l-.508 2.17a7 7 0 0 0-1.262-.434q-.705-.18-1.492-.181-.787 0-1.131.29a.94.94 0 0 0-.344.758q0 .29.098.507.115.198.344.361.23.163.558.326.344.144.82.325.72.29 1.327.633.623.343 1.066.795.458.435.705 1.03.262.598.262 1.393 0 .542-.148 1.085-.147.525-.491.976-.345.451-.902.777-.54.326-1.344.47V20h-2.066z"/></svg>