<svg xmlns="http://www.w3.org/2000/svg" fill="none" viewBox="0 0 32 24"><path fill="#011E72" d="M29.913 0H2.087A2.087 2.087 0 0 0 0 2.087v19.478c0 1.153.934 2.087 2.087 2.087h27.826A2.087 2.087 0 0 0 32 21.565V2.087A2.087 2.087 0 0 0 29.913 0"/><path fill="#fff" d="M13.913 9.142v5.368A2.78 2.78 0 0 0 16 11.826a2.78 2.78 0 0 0-2.087-2.684"/><path fill="#fff" d="M18.783 6.26h-5.565a5.566 5.566 0 0 0 0 11.131h5.565a5.565 5.565 0 0 0 0-11.13M13.218 16a4.18 4.18 0 0 1-4.174-4.174 4.18 4.18 0 0 1 4.174-4.174 4.18 4.18 0 0 1 4.174 4.174A4.18 4.18 0 0 1 13.218 16"/><path fill="#fff" d="M12.522 9.142a2.78 2.78 0 0 0-2.087 2.684 2.78 2.78 0 0 0 2.086 2.684z"/></svg>