<svg xmlns="http://www.w3.org/2000/svg" fill="none" viewBox="0 0 32 24"><path fill="#121212" d="M29.913 0H2.087A2.087 2.087 0 0 0 0 2.087v19.478c0 1.153.934 2.087 2.087 2.087h27.826A2.087 2.087 0 0 0 32 21.565V2.087A2.087 2.087 0 0 0 29.913 0"/><path fill="#fff" d="M18.738 13.473a1.5 1.5 0 0 1-1.074.428 1.47 1.47 0 0 1-.772-.232l-.557.887a2.546 2.546 0 0 0 3.133-.332z"/><path fill="#FFF100" d="M8.264 9.499c.252-.083.516-.125.781-.124a2.455 2.455 0 0 1 2.413 1.963l1.685-.343A4.177 4.177 0 0 0 7.72 7.87z"/><path fill="#00A3DF" d="m6.28 14.955 1.137-1.288a2.455 2.455 0 0 1 0-3.676l-1.14-1.285a4.174 4.174 0 0 0 0 6.249z"/><path fill="#EE4023" d="M11.447 12.321a2.455 2.455 0 0 1-3.183 1.837l-.545 1.629a4.184 4.184 0 0 0 5.414-3.113z"/><path fill="#fff" d="M17.727 9.854a2.546 2.546 0 0 0-2.581 2.52c-.01.507.134 1.005.413 1.43l4.612-1.976a2.55 2.55 0 0 0-2.44-1.966zm-1.525 2.724a2 2 0 0 1 0-.182 1.507 1.507 0 0 1 2.645-.944zM21.615 8.709v4.916l.854.355-.404.968-.845-.35a.96.96 0 0 1-.416-.35 1.1 1.1 0 0 1-.163-.6V8.708zM24.691 10.98q.231-.075.474-.076a1.51 1.51 0 0 1 1.466 1.206l1.029-.21a2.546 2.546 0 0 0-3.317-1.91zM23.48 14.309l.693-.784a1.51 1.51 0 0 1 0-2.244l-.694-.787a2.544 2.544 0 0 0 0 3.819zM26.63 12.705a1.51 1.51 0 0 1-1.468 1.207q-.243 0-.474-.079l-.33.996a2.546 2.546 0 0 0 3.303-1.91z"/></svg>