<svg xmlns="http://www.w3.org/2000/svg" fill="none" viewBox="0 0 32 24"><path fill="#B82126" d="M29.913 0H2.087A2.087 2.087 0 0 0 0 2.087v19.478c0 1.153.934 2.087 2.087 2.087h27.826A2.087 2.087 0 0 0 32 21.565V2.087A2.087 2.087 0 0 0 29.913 0"/><path fill="#fff" d="M2 13.524q.286-1.033.543-2.32.258-1.288.46-2.713.176.023.252.03.075.007.125.007.066 0 .16-.008.093-.008.243-.029-.167.531-.338 1.365l-.017.079-.144.71q.154.003.44.013.632.015.834.015a55 55 0 0 0 1.486-.029l.167-.81q.093-.463.133-.759.04-.294.064-.584.145.023.233.03a1.7 1.7 0 0 0 .295 0q.082-.008.258-.03-.383 1.453-.644 2.755a26 26 0 0 0-.36 2.276 7 7 0 0 0-.254-.031 1.3 1.3 0 0 0-.276.002 4 4 0 0 0-.253.029 40 40 0 0 0 .374-1.525l.195-.971q-.32 0-.77-.004l-.581-.004q-.356 0-.698.002l-.709.006-.17.817q-.076.368-.14.783-.066.415-.131.898-.139-.018-.228-.027a1.6 1.6 0 0 0-.306 0 3 3 0 0 0-.243.027m5.865-4.819q0-.16.1-.26a.35.35 0 0 1 .258-.1q.165.001.259.094.09.092.09.266a.353.353 0 0 1-.356.365.34.34 0 0 1-.253-.104.36.36 0 0 1-.098-.26m-.833 4.819q.296-1.144.46-2.06.165-.918.178-1.467.107.014.197.02.09.01.177.009.088 0 .185-.008.098-.008.2-.021-.285 1.046-.447 1.946a12 12 0 0 0-.19 1.58q-.163-.02-.245-.028a1.4 1.4 0 0 0-.272 0c-.058.006-.137.013-.243.029m3.188-.332q.54 0 .906-.55.364-.546.364-1.36 0-.47-.21-.738a.7.7 0 0 0-.576-.268q-.561 0-.935.55-.374.549-.374 1.362 0 .495.208.75.206.255.617.254m-2.2 2.342q.33-1.155.616-2.567t.512-2.97q.095.01.172.015a2 2 0 0 0 .277 0q.084-.005.191-.015l-.133.514q.267-.305.57-.455.3-.15.66-.15.588 0 .935.395.344.395.345 1.072.001.96-.548 1.598a1.74 1.74 0 0 1-1.376.636q-.341-.001-.622-.212a1.1 1.1 0 0 1-.39-.554l-.158.823-.042.212a39 39 0 0 0-.3 1.658q-.125-.023-.201-.033a.8.8 0 0 0-.293 0 3 3 0 0 0-.214.033m5.05-4.119q.104.004.282.008.425.008.56.008.16 0 .62-.008.18-.004.277-.008l.017-.2q.005-.082.004-.145 0-.412-.18-.65a.59.59 0 0 0-.496-.234q-.38 0-.67.33-.288.33-.414.9m-.067.312-.021.236q-.007.118-.008.227 0 .519.25.796.252.279.718.28.29-.001.562-.136.27-.133.567-.43l.089.074a2.495 2.495 0 0 0-.175.476q-.304.196-.585.285a1.8 1.8 0 0 1-.576.093q-.705 0-1.124-.426-.417-.428-.418-1.145 0-.917.54-1.538.539-.62 1.363-.62.602 0 .944.381.34.382.341 1.056 0 .037-.008.139l-.017.25h-.166q-.803-.015-1.139-.015l-.459.006zm2.461 1.797c.176-.679.314-1.322.422-1.931q.161-.914.207-1.598.098.013.177.021.08.008.139.008.078 0 .162-.008.08-.008.175-.021a3 3 0 0 0-.09.335 4 4 0 0 0-.062.366 2.1 2.1 0 0 1 .512-.572q.273-.202.528-.202.046-.001.095.007.046.008.1.021a2.5 2.5 0 0 0-.102.615q-.122-.025-.203-.038a1 1 0 0 0-.142-.012q-.494 0-.76.627-.266.626-.454 2.38a5 5 0 0 0-.21-.025 2 2 0 0 0-.155-.01 1 1 0 0 0-.108.008c-.044.006-.12.013-.23.029m4.766-.199a2.3 2.3 0 0 1-.528.222 2.2 2.2 0 0 1-.56.073q-.691 0-1.116-.43t-.426-1.133q0-.905.564-1.524a1.84 1.84 0 0 1 1.417-.62q.364.001.661.074t.545.222a2.5 2.5 0 0 0-.212.61l-.107.008a1.1 1.1 0 0 0-.342-.462.8.8 0 0 0-.495-.164q-.567 0-.96.553-.392.555-.391 1.35 0 .56.252.859.253.3.721.3.317 0 .594-.13t.455-.369l.102.083a4 4 0 0 0-.098.232q-.042.12-.076.246m2.225-.287q-.247.287-.505.422a1.2 1.2 0 0 1-.557.135q-.421 0-.661-.231-.243-.233-.243-.627 0-.505.325-.782.327-.28 1.153-.441l.605-.12a.29.29 0 0 0 .208-.177q.068-.148.068-.434 0-.28-.162-.44-.162-.157-.451-.157-.325 0-.575.15-.25.149-.39.426l-.124-.021q.03-.108.042-.208.015-.1.014-.199l-.004-.06-.004-.065q.265-.161.536-.24a2 2 0 0 1 .58-.076q.532 0 .82.233.285.234.284.667 0 .125-.023.31a5 5 0 0 1-.065.397l-.245 1.249a1.136 1.136 0 0 0-.035.291q.001.105.056.16.056.058.158.058c.027 0 .06-.004.09-.012q.052-.01.141-.038l.093.188a1.6 1.6 0 0 1-.324.145 1 1 0 0 1-.304.046.47.47 0 0 1-.365-.142q-.124-.139-.136-.407m.229-1.384-.592.14q-.514.12-.751.329a.69.69 0 0 0-.236.54q.001.243.143.394.142.15.376.15a.9.9 0 0 0 .582-.223.85.85 0 0 0 .328-.515zm1.002 1.87q.261-1.018.422-1.931.162-.914.206-1.598.1.013.178.021a1.3 1.3 0 0 0 .3 0q.082-.008.176-.021-.055.162-.09.335a4 4 0 0 0-.062.366 2.1 2.1 0 0 1 .512-.572q.273-.202.528-.202.046-.001.095.007.046.008.1.021a2.5 2.5 0 0 0-.102.615q-.122-.025-.203-.038a1 1 0 0 0-.142-.012q-.494 0-.76.627-.267.626-.454 2.38a5 5 0 0 0-.21-.025 2 2 0 0 0-.155-.01 1 1 0 0 0-.108.008c-.042.006-.12.013-.23.029m4.672-.515q-.296.312-.596.455-.3.142-.666.143-.562 0-.9-.405-.342-.403-.342-1.078 0-.946.54-1.582t1.343-.636q.373 0 .654.204.28.202.403.563l.165-.815q.11-.547.191-.998.08-.45.14-.858.134.026.207.035a1 1 0 0 0 .29-.004Q29.882 8.022 30 8a41 41 0 0 0-.653 2.735q-.287 1.393-.475 2.789a3 3 0 0 0-.308-.023q-.062 0-.148.005-.084.006-.191.018zm-.553-2.68q-.55 0-.916.548-.364.55-.364 1.375.001.477.2.732.2.252.579.252.574 0 .944-.549.37-.547.37-1.384 0-.475-.21-.724-.209-.251-.603-.25"/></svg>