<svg xmlns="http://www.w3.org/2000/svg" fill="none" viewBox="0 0 32 24"><path fill="#F2F2F2" d="M29.913 0H2.087A2.087 2.087 0 0 0 0 2.087v19.478c0 1.153.934 2.087 2.087 2.087h27.826A2.087 2.087 0 0 0 32 21.565V2.087A2.087 2.087 0 0 0 29.913 0"/><path fill="#E61C24" d="M12.521 17.391a5.565 5.565 0 1 0 0-11.13 5.565 5.565 0 0 0 0 11.13"/><path fill="#F99F1B" d="M19.432 17.391a5.565 5.565 0 1 0 0-11.13 5.565 5.565 0 0 0 0 11.13"/><path fill="#F26622" d="M15.977 7.469a5.554 5.554 0 0 0 0 8.715 5.556 5.556 0 0 0 0-8.715"/></svg>