<svg xmlns="http://www.w3.org/2000/svg" fill="none" viewBox="0 0 33 32"><path fill="#32BCAD" d="M23.217 22.36a3.5 3.5 0 0 1-2.493-1.032l-3.6-3.6a.684.684 0 0 0-.946 0l-3.613 3.613a3.5 3.5 0 0 1-2.493 1.032h-.71l4.56 4.56a3.646 3.646 0 0 0 5.156 0l4.572-4.573zM10.072 9.627c.942 0 1.827.367 2.493 1.032l3.613 3.614a.67.67 0 0 0 .946 0l3.6-3.6a3.5 3.5 0 0 1 2.493-1.033h.433l-4.572-4.572a3.646 3.646 0 0 0-5.156 0l-4.56 4.559z"/><path fill="#32BCAD" d="m27.432 13.422-2.763-2.763a.5.5 0 0 1-.196.04h-1.256c-.65 0-1.285.263-1.744.722l-3.6 3.6c-.337.337-.78.505-1.222.505s-.885-.168-1.221-.505l-3.614-3.613a2.48 2.48 0 0 0-1.744-.723H8.527a.5.5 0 0 1-.185-.037l-2.774 2.774a3.646 3.646 0 0 0 0 5.156l2.774 2.774a.5.5 0 0 1 .185-.037h1.545c.65 0 1.285-.264 1.744-.723l3.613-3.613c.653-.652 1.792-.653 2.444 0l3.6 3.6c.459.46 1.094.723 1.744.723h1.256q.105.001.196.039l2.763-2.763a3.646 3.646 0 0 0 0-5.156"/></svg>