<svg xmlns="http://www.w3.org/2000/svg" fill="none" viewBox="0 0 32 24"><path fill="#40AA60" d="M29.913 0H2.087A2.087 2.087 0 0 0 0 2.087v19.478c0 1.153.934 2.087 2.087 2.087h27.826A2.087 2.087 0 0 0 32 21.565V2.087A2.087 2.087 0 0 0 29.913 0"/><path fill="#fff" d="M22.417 7.333h-2.441c.065-.183.107-.378.107-.583 0-.965-.785-1.75-1.75-1.75-1.151 0-1.888.76-2.333 1.485C15.556 5.76 14.818 5 13.667 5c-.965 0-1.75.785-1.75 1.75 0 .205.042.4.107.583h-2.44A.583.583 0 0 0 9 7.917v1.166c0 .323.261.584.583.584h12.834c.322 0 .583-.261.583-.584V7.917a.583.583 0 0 0-.583-.584m-4.084-1.166a.584.584 0 0 1 0 1.166h-1.476c.274-.535.751-1.166 1.476-1.166m-5.25.583c0-.322.262-.583.584-.583.725 0 1.202.631 1.476 1.166h-1.476a.584.584 0 0 1-.584-.583M15.417 10.833h-5.25v7.584c0 .322.261.583.583.583h4.667zM21.833 10.833h-5.25V19h4.667a.584.584 0 0 0 .583-.583z"/></svg>