<svg xmlns="http://www.w3.org/2000/svg" fill="none" viewBox="0 0 32 24"><path fill="#1A1876" d="M29.913 0H2.087A2.087 2.087 0 0 0 0 2.087v19.478c0 1.153.934 2.087 2.087 2.087h27.826A2.087 2.087 0 0 0 32 21.565V2.087A2.087 2.087 0 0 0 29.913 0"/><path fill="#fff" d="M12.688 15.165h1.814l1.136-6.662h-1.815zM19.3 11.179c-.634-.309-1.023-.514-1.02-.826 0-.278.33-.573 1.044-.573.527-.013 1.048.1 1.522.332l.246-1.444a4.7 4.7 0 0 0-1.628-.278c-1.794 0-3.06.904-3.068 2.198-.01.957.904 1.492 1.59 1.809.707.326.945.534.942.825-.005.447-.564.652-1.087.652a4 4 0 0 1-1.943-.456l-.254 1.49c.647.24 1.332.36 2.022.356 1.909 0 3.148-.893 3.162-2.275.003-.759-.48-1.335-1.528-1.81M25.744 8.51H24.34a.904.904 0 0 0-.951.552l-2.697 6.103H22.6l.382-1.001h2.326c.054.234.22.998.22.998h1.686zm-2.239 4.294c.075-.193.816-2.095.964-2.498.245 1.148.007.034.543 2.498zM11.165 8.508l-1.779 4.543-.189-.923-.636-3.061a.76.76 0 0 0-.824-.563H4.81l-.023.14a7.6 7.6 0 0 1 1.908.73l1.614 5.786h1.92l2.86-6.649z"/></svg>